<svg width="23" height="24" viewBox="0 0 23 24" fill="none" xmlns="http://www.w3.org/2000/svg">
<path d="M22.2444 0H0.708419C0.330595 0 0 0.28 0 0.6V23.4C0 23.72 0.330595 24 0.708419 24H22.2916C22.6694 24 23 23.72 23 23.4V0.6C22.9528 0.28 22.6694 0 22.2444 0ZM21.5359 22.8H1.41684V1.2H21.5832V22.8H21.5359ZM3.25873 8.32H11.4764C11.8542 8.32 12.1848 8.04 12.1848 7.72V2.92C12.1848 2.6 11.8542 2.32 11.4764 2.32H3.25873C2.8809 2.32 2.55031 2.6 2.55031 2.92V7.72C2.55031 8.08 2.83367 8.32 3.25873 8.32ZM3.96714 3.56H10.768V7.16H3.96714V3.56ZM13.6489 2.96C13.6489 2.64 13.9795 2.36 14.3573 2.36H19.6468C20.0246 2.36 20.3552 2.64 20.3552 2.96C20.3552 3.28 20.0246 3.56 19.6468 3.56H14.3573C13.9322 3.56 13.6489 3.28 13.6489 2.96ZM13.6489 5.36C13.6489 5.04 13.9795 4.76 14.3573 4.76H19.6468C20.0246 4.76 20.3552 5.04 20.3552 5.36C20.3552 5.68 20.0246 5.96 19.6468 5.96H14.3573C13.9322 5.96 13.6489 5.68 13.6489 5.36ZM13.6489 7.72C13.6489 7.4 13.9795 7.12 14.3573 7.12H19.6468C20.0246 7.12 20.3552 7.4 20.3552 7.72C20.3552 8.04 20.0246 8.32 19.6468 8.32H14.3573C13.9322 8.32 13.6489 8.08 13.6489 7.72ZM2.55031 10.56C2.55031 10.24 2.8809 9.96 3.25873 9.96H19.6468C20.0246 9.96 20.3552 10.24 20.3552 10.56C20.3552 10.88 20.0246 11.16 19.6468 11.16H3.25873C2.83367 11.16 2.55031 10.88 2.55031 10.56ZM2.55031 12.96C2.55031 12.64 2.8809 12.36 3.25873 12.36H19.6468C20.0246 12.36 20.3552 12.64 20.3552 12.96C20.3552 13.28 20.0246 13.56 19.6468 13.56H3.25873C2.83367 13.56 2.55031 13.28 2.55031 12.96ZM2.55031 15.36C2.55031 15.04 2.8809 14.76 3.25873 14.76H19.6468C20.0246 14.76 20.3552 15.04 20.3552 15.36C20.3552 15.68 20.0246 15.96 19.6468 15.96H3.25873C2.83367 15.96 2.55031 15.68 2.55031 15.36ZM2.55031 17.76C2.55031 17.44 2.8809 17.16 3.25873 17.16H19.6468C20.0246 17.16 20.3552 17.44 20.3552 17.76C20.3552 18.08 20.0246 18.36 19.6468 18.36H3.25873C2.83367 18.36 2.55031 18.08 2.55031 17.76ZM2.55031 20.16C2.55031 19.84 2.8809 19.56 3.25873 19.56H19.6468C20.0246 19.56 20.3552 19.84 20.3552 20.16C20.3552 20.48 20.0246 20.76 19.6468 20.76H3.25873C2.83367 20.76 2.55031 20.48 2.55031 20.16Z" fill="#C4C4C4"/>
</svg>
