<svg width="23" height="20" viewBox="0 0 23 20" fill="none" xmlns="http://www.w3.org/2000/svg">
<path d="M22.738 10.353L20.1161 7.85257L12.144 0.249874C12.0616 0.170697 11.9637 0.107853 11.8557 0.0649667C11.7478 0.0220801 11.632 0 11.5151 0C11.3981 0 11.2824 0.0220801 11.1744 0.0649667C11.0665 0.107853 10.9685 0.170697 10.8862 0.249874L2.9141 7.85257L0.221307 10.4206C0.111095 10.5398 0.038394 10.6863 0.0115579 10.8432C-0.0152781 11.0001 0.0048398 11.161 0.0695999 11.3074C0.13436 11.4539 0.241135 11.5799 0.377654 11.6711C0.514173 11.7623 0.674897 11.8149 0.841357 11.8229C1.07248 11.8242 1.295 11.7393 1.46141 11.5863L2.64836 10.4544V19.1553C2.64836 19.3793 2.74168 19.5942 2.9078 19.7526C3.07392 19.911 3.29922 20 3.53415 20H19.4783C19.7132 20 19.9385 19.911 20.1046 19.7526C20.2708 19.5942 20.3641 19.3793 20.3641 19.1553V10.4882L21.4979 11.5526C21.5774 11.6334 21.6735 11.6978 21.7801 11.7418C21.8868 11.7858 22.0017 11.8085 22.1179 11.8085C22.2341 11.8085 22.3491 11.7858 22.4558 11.7418C22.5624 11.6978 22.6585 11.6334 22.738 11.5526C22.821 11.474 22.8869 11.3806 22.9319 11.2777C22.9768 11.1747 23 11.0643 23 10.9528C23 10.8413 22.9768 10.7309 22.9319 10.6279C22.8869 10.525 22.821 10.4315 22.738 10.353ZM18.5925 18.3443H4.41993V8.79869L11.5062 2.04073L18.5925 8.79869V18.3443Z" fill="#C4C4C4"/>
</svg>
